<svg width="34" height="34" viewBox="0 0 34 34" fill="none" xmlns="http://www.w3.org/2000/svg">
<path d="M4.97897 13.4644C2.63582 11.1213 2.63582 7.32231 4.97897 4.97916V4.97916C7.32211 2.63602 11.1211 2.63602 13.4642 4.97916L29.0206 20.5355C31.3637 22.8787 31.3637 26.6776 29.0206 29.0208V29.0208C26.6775 31.3639 22.8785 31.3639 20.5353 29.0208L4.97897 13.4644Z" fill="black"/>
<path d="M20.5357 4.97921C22.8788 2.63607 26.6778 2.63607 29.021 4.97921V4.97921C31.3641 7.32236 31.3641 11.1213 29.021 13.4645L13.4646 29.0208C11.1215 31.364 7.32248 31.364 4.97933 29.0208V29.0208C2.63619 26.6777 2.63619 22.8787 4.97933 20.5356L20.5357 4.97921Z" fill="black"/>
<path d="M11 6C11 2.68629 13.6863 0 17 0V0C20.3137 0 23 2.68629 23 6V28C23 31.3137 20.3137 34 17 34V34C13.6863 34 11 31.3137 11 28L11 6Z" fill="black"/>
<path d="M28 11C31.3137 11 34 13.6863 34 17V17C34 20.3137 31.3137 23 28 23L6 23C2.68629 23 2.03558e-07 20.3137 1.31134e-07 17V17C5.87108e-08 13.6863 2.68629 11 6 11L28 11Z" fill="black"/>
<circle cx="17" cy="17" r="5" fill="white"/>
</svg>
